<svg width="89" height="73" viewBox="0 0 89 73" fill="none" xmlns="http://www.w3.org/2000/svg">
<path opacity="0.5" d="M13.3691 31.0176L34.4927 40.5282C40.7687 43.3539 47.8019 43.3539 54.0779 40.5282L75.201 31.0178V53.7824C75.201 58.058 72.9773 62.0609 69.0826 64.1323C62.5975 67.5814 52.2173 72.3372 44.2851 72.3372C36.3529 72.3372 25.9727 67.5814 19.4876 64.1323C15.5929 62.0609 13.3691 58.058 13.3691 53.7824V31.0176Z" fill="white"/>
<path d="M53.958 2.11926C47.6821 -0.706419 40.6488 -0.706422 34.3729 2.11926L4.82114 15.4246C0.0689104 17.5642 -1.17009 23.5976 1.10414 27.7676L1.10414 48.7772C1.10414 50.5341 2.58716 51.9583 4.41656 51.9583C6.24597 51.9583 7.72899 50.5341 7.72899 48.7772V32.5409L34.3733 44.5372C40.6492 47.3629 47.6825 47.3629 53.9584 44.5372L83.5101 31.2318C89.9383 28.3376 89.9383 18.319 83.5102 15.4248L53.958 2.11926Z" fill="white"/>
</svg>
