<svg width="84" height="84" viewBox="0 0 84 84" fill="none" xmlns="http://www.w3.org/2000/svg">
<path opacity="0.5" d="M72.9705 30.4957C78.3454 25.1207 78.3454 16.4062 72.9705 11.0312C67.5955 5.65626 58.881 5.65626 53.506 11.0312L50.4014 14.1359C50.4439 14.2642 50.488 14.3944 50.5337 14.5262C51.6717 17.8062 53.8188 22.106 57.8578 26.1451C61.8969 30.1841 66.1966 32.3312 69.4766 33.4692C69.6079 33.5147 69.7374 33.5586 69.8652 33.6009L72.9705 30.4957Z" fill="white"/>
<path d="M50.535 14L50.4014 14.1337C50.4439 14.2621 50.488 14.3922 50.5337 14.5241C51.6717 17.8041 53.8188 22.1038 57.8578 26.1429C61.8969 30.1819 66.1966 32.329 69.4766 33.467C69.6067 33.5121 69.7352 33.5557 69.8619 33.5976L39.9004 63.5592C37.8804 65.5791 36.8702 66.5894 35.7566 67.458C34.4429 68.4826 33.0214 69.3611 31.5174 70.0779C30.2424 70.6855 28.8873 71.1372 26.1771 72.0406L11.8854 76.8045C10.5517 77.2491 9.0813 76.902 8.08721 75.9079C7.09312 74.9138 6.746 73.4434 7.19057 72.1097L11.9545 57.818C12.8579 55.1078 13.3096 53.7527 13.9172 52.4777C14.634 50.9737 15.5125 49.5522 16.5371 48.2385C17.4057 47.1249 18.4158 46.1149 20.4356 44.095L50.535 14Z" fill="white"/>
<g opacity="0.5">
<path d="M19.2208 14.1588L14.1588 19.2208C9.38628 23.9934 7 26.3796 7 29.3449C7 32.3102 9.38626 34.6964 14.1588 39.4689L19.6106 44.9208C19.8657 44.6649 20.1398 44.3908 20.4355 44.0951L44.9222 19.612L39.469 14.1588C34.6965 9.38627 32.3102 7 29.3449 7C26.3796 7 23.9934 9.38627 19.2208 14.1588Z" fill="white"/>
<path d="M64.3849 39.0747L39.9004 63.5592C39.6045 63.8551 39.3303 64.1292 39.0743 64.3845L44.531 69.8412C49.3035 74.6137 51.6898 77 54.6551 77C57.6204 77 60.0066 74.6137 64.7792 69.8412L69.8412 64.7792C74.6137 60.0066 77 57.6204 77 54.6551C77 51.6898 74.6137 49.3035 69.8412 44.531L64.3849 39.0747Z" fill="white"/>
</g>
<path d="M70.3793 45.0693L66.2874 49.1612C65.2623 50.1864 65.2623 51.8484 66.2874 52.8736C67.3125 53.8987 68.9746 53.8987 69.9997 52.8736L74.0251 48.8481C73.0497 47.754 71.8345 46.5259 70.3793 45.0693Z" fill="white"/>
<path d="M34.181 9.14453L29.5384 13.7872C28.5132 14.8123 28.5132 16.4743 29.5384 17.4995C30.5635 18.5246 32.2256 18.5246 33.2507 17.4995L38.029 12.7211C36.5386 11.2422 35.2971 10.05 34.181 9.14453Z" fill="white"/>
</svg>
