<svg width="84" height="84" viewBox="0 0 84 84" fill="none" xmlns="http://www.w3.org/2000/svg">
<path d="M20.4615 28C20.4615 18.1005 20.4615 13.1508 23.6158 10.0754C26.77 7 31.8467 7 42 7C52.1533 7 57.23 7 60.3842 10.0754C63.5385 13.1508 63.5385 18.1005 63.5385 28V56C63.5385 65.8995 63.5385 70.8492 60.3842 73.9246C57.23 77 52.1533 77 42 77C31.8467 77 26.77 77 23.6158 73.9246C20.4615 70.8492 20.4615 65.8995 20.4615 56V28Z" fill="white"/>
<path fill-rule="evenodd" clip-rule="evenodd" d="M9.69231 13.125C11.1792 13.125 12.3846 14.3003 12.3846 15.75V68.25C12.3846 69.6997 11.1792 70.875 9.69231 70.875C8.20539 70.875 7 69.6997 7 68.25V15.75C7 14.3003 8.20539 13.125 9.69231 13.125ZM74.3077 13.125C75.7946 13.125 77 14.3003 77 15.75V68.25C77 69.6997 75.7946 70.875 74.3077 70.875C72.8208 70.875 71.6154 69.6997 71.6154 68.25V15.75C71.6154 14.3003 72.8208 13.125 74.3077 13.125Z" fill="white"/>
</svg>
