<svg width="95" height="95" viewBox="0 0 95 95" fill="none" xmlns="http://www.w3.org/2000/svg">
<path opacity="0.5" d="M83.125 63.3266V39.5766C83.125 28.3808 83.125 22.7828 79.6469 19.3047C76.6054 16.2632 71.9428 15.8814 63.3333 15.8335H31.6667C23.0572 15.8814 18.3946 16.2632 15.3531 19.3047C11.875 22.7828 11.875 28.3808 11.875 39.5766V63.3266C11.875 74.5225 11.875 80.1204 15.3531 83.5985C18.8312 87.0766 24.4291 87.0766 35.625 87.0766H59.375C70.5709 87.0766 76.1688 87.0766 79.6469 83.5985C83.125 80.1204 83.125 74.5225 83.125 63.3266Z" fill="white"/>
<path d="M31.667 13.854C31.667 10.5748 34.3253 7.9165 37.6045 7.9165H57.3962C60.6753 7.9165 63.3337 10.5748 63.3337 13.854V17.8123C63.3337 21.0915 60.6753 23.7498 57.3962 23.7498H37.6045C34.3253 23.7498 31.667 21.0915 31.667 17.8123V13.854Z" fill="white"/>
<path fill-rule="evenodd" clip-rule="evenodd" d="M24.7393 41.5625C24.7393 39.9229 26.0684 38.5938 27.708 38.5938H29.6872C31.3268 38.5938 32.6559 39.9229 32.6559 41.5625C32.6559 43.2021 31.3268 44.5313 29.6872 44.5313H27.708C26.0684 44.5313 24.7393 43.2021 24.7393 41.5625ZM38.5934 41.5625C38.5934 39.9229 39.9226 38.5938 41.5622 38.5938H67.2913C68.9309 38.5938 70.2601 39.9229 70.2601 41.5625C70.2601 43.2021 68.9309 44.5313 67.2913 44.5313H41.5622C39.9226 44.5313 38.5934 43.2021 38.5934 41.5625ZM24.7393 55.4167C24.7393 53.7771 26.0684 52.4479 27.708 52.4479H29.6872C31.3268 52.4479 32.6559 53.7771 32.6559 55.4167C32.6559 57.0563 31.3268 58.3854 29.6872 58.3854H27.708C26.0684 58.3854 24.7393 57.0563 24.7393 55.4167ZM38.5934 55.4167C38.5934 53.7771 39.9226 52.4479 41.5622 52.4479H67.2913C68.9309 52.4479 70.2601 53.7771 70.2601 55.4167C70.2601 57.0563 68.9309 58.3854 67.2913 58.3854H41.5622C39.9226 58.3854 38.5934 57.0563 38.5934 55.4167ZM24.7393 69.2708C24.7393 67.6312 26.0684 66.3021 27.708 66.3021H29.6872C31.3268 66.3021 32.6559 67.6312 32.6559 69.2708C32.6559 70.9104 31.3268 72.2396 29.6872 72.2396H27.708C26.0684 72.2396 24.7393 70.9104 24.7393 69.2708ZM38.5934 69.2708C38.5934 67.6312 39.9226 66.3021 41.5622 66.3021H67.2913C68.9309 66.3021 70.2601 67.6312 70.2601 69.2708C70.2601 70.9104 68.9309 72.2396 67.2913 72.2396H41.5622C39.9226 72.2396 38.5934 70.9104 38.5934 69.2708Z" fill="white"/>
</svg>
