<svg width="97" height="97" viewBox="0 0 97 97" fill="none" xmlns="http://www.w3.org/2000/svg">
<path d="M64.6663 24.2502C64.6663 33.1788 57.4283 40.4168 48.4997 40.4168C39.5711 40.4168 32.333 33.1788 32.333 24.2502C32.333 15.3216 39.5711 8.0835 48.4997 8.0835C57.4283 8.0835 64.6663 15.3216 64.6663 24.2502Z" fill="white"/>
<path fill-rule="evenodd" clip-rule="evenodd" d="M66.6878 88.9167C60.0194 88.9167 56.6852 88.9167 54.6136 86.8451C52.542 84.7734 52.542 81.4392 52.542 74.7708C52.542 68.1024 52.542 64.7682 54.6136 62.6966C56.6852 60.625 60.0194 60.625 66.6878 60.625C73.3562 60.625 76.6904 60.625 78.7621 62.6966C80.8337 64.7682 80.8337 68.1024 80.8337 74.7708C80.8337 81.4392 80.8337 84.7734 78.7621 86.8451C76.6904 88.9167 73.3562 88.9167 66.6878 88.9167ZM74.642 71.7227C75.5627 70.8019 75.5627 69.3092 74.642 68.3885C73.7213 67.4677 72.2285 67.4677 71.3078 68.3885L63.5443 76.1519L62.0679 74.6755C61.1472 73.7548 59.6544 73.7548 58.7337 74.6755C57.813 75.5962 57.813 77.089 58.7337 78.0097L61.8772 81.1532C62.7979 82.0739 64.2907 82.0739 65.2114 81.1532L74.642 71.7227Z" fill="white"/>
<path opacity="0.5" d="M58.5131 88.5964C55.5783 88.8065 52.2576 88.9165 48.5003 88.9165C16.167 88.9165 16.167 80.7737 16.167 70.729C16.167 60.6843 30.6431 52.5415 48.5003 52.5415C60.1427 52.5415 70.348 56.0028 76.0412 61.1957C73.9548 60.6248 71.0273 60.6248 66.6878 60.6248C60.0194 60.6248 56.6852 60.6248 54.6136 62.6964C52.542 64.7681 52.542 68.1023 52.542 74.7707C52.542 81.4391 52.542 84.7733 54.6136 86.8449C55.5736 87.8049 56.8047 88.32 58.5131 88.5964Z" fill="white"/>
</svg>
