<svg width="83" height="83" viewBox="0 0 83 83" fill="none" xmlns="http://www.w3.org/2000/svg">
<path d="M19.6577 41.5C19.6577 43.5224 18.0278 45.1618 16.0173 45.1618C14.0068 45.1618 12.377 43.5224 12.377 41.5C12.377 39.4777 14.0068 37.8383 16.0173 37.8383C18.0278 37.8383 19.6577 39.4777 19.6577 41.5Z" fill="white" fill-opacity="0.8"/>
<path d="M19.6577 63.4706C19.6577 65.493 18.0278 67.1324 16.0173 67.1324C14.0068 67.1324 12.377 65.493 12.377 63.4706C12.377 61.4483 14.0068 59.8089 16.0173 59.8089C18.0278 59.8089 19.6577 61.4483 19.6577 63.4706Z" fill="white" fill-opacity="0.8"/>
<path d="M19.6577 19.5294C19.6577 21.5518 18.0278 23.1912 16.0173 23.1912C14.0068 23.1912 12.377 21.5518 12.377 19.5294C12.377 17.5071 14.0068 15.8677 16.0173 15.8677C18.0278 15.8677 19.6577 17.5071 19.6577 19.5294Z" fill="white" fill-opacity="0.8"/>
<g opacity="0.5">
<path fill-rule="evenodd" clip-rule="evenodd" d="M12.1581 54.3816C13.0971 54.3172 14.2968 54.3162 16.0179 54.3162H66.9828C68.7039 54.3162 69.9035 54.3172 70.8426 54.3816C71.7652 54.4449 72.3026 54.5634 72.7128 54.7343C74.0508 55.2918 75.1138 56.361 75.668 57.7069C75.8379 58.1195 75.9557 58.66 76.0186 59.5881C76.0827 60.5326 76.0837 61.7394 76.0837 63.4706C76.0837 65.2018 76.0827 66.4085 76.0186 67.3531C75.9557 68.2812 75.8379 68.8217 75.668 69.2343C75.1138 70.5802 74.0508 71.6494 72.7128 72.2069C72.3026 72.3778 71.7652 72.4962 70.8426 72.5596C69.9035 72.624 68.7039 72.625 66.9828 72.625H16.0179C14.2968 72.625 13.0971 72.624 12.1581 72.5596C11.2354 72.4962 10.6981 72.3778 10.2879 72.2069C8.94988 71.6494 7.88686 70.5802 7.33265 69.2343C7.16272 68.8217 7.045 68.2812 6.98205 67.3531C6.91798 66.4085 6.91699 65.2018 6.91699 63.4706C6.91699 61.7394 6.91798 60.5326 6.98205 59.5881C7.045 58.66 7.16272 58.1195 7.33265 57.7069C7.88686 56.361 8.94988 55.2918 10.2879 54.7343C10.6981 54.5634 11.2354 54.4449 12.1581 54.3816ZM16.0179 67.1324C18.0284 67.1324 19.6582 65.4929 19.6582 63.4706C19.6582 61.4482 18.0284 59.8088 16.0179 59.8088C14.0074 59.8088 12.3775 61.4482 12.3775 63.4706C12.3775 65.4929 14.0074 67.1324 16.0179 67.1324Z" fill="white" fill-opacity="0.8"/>
<path fill-rule="evenodd" clip-rule="evenodd" d="M16.0179 28.6838C14.2968 28.6838 13.0971 28.6828 12.1581 28.6184C11.2354 28.5551 10.6981 28.4366 10.2879 28.2657C8.94988 27.7083 7.88686 26.639 7.33265 25.2931C7.16272 24.8805 7.045 24.34 6.98205 23.4119C6.91798 22.4674 6.91699 21.2606 6.91699 19.5294C6.91699 17.7982 6.91798 16.5915 6.98205 15.6469C7.045 14.7188 7.16272 14.1784 7.33265 13.7657C7.88686 12.4198 8.94988 11.3506 10.2879 10.7931C10.6981 10.6222 11.2354 10.5038 12.1581 10.4404C13.0971 10.376 14.2968 10.375 16.0179 10.375H66.9828C68.7039 10.375 69.9035 10.376 70.8426 10.4404C71.7652 10.5038 72.3026 10.6222 72.7128 10.7931C74.0508 11.3506 75.1138 12.4198 75.668 13.7657C75.8379 14.1784 75.9557 14.7188 76.0186 15.6469C76.0827 16.5915 76.0837 17.7982 76.0837 19.5294C76.0837 21.2606 76.0827 22.4674 76.0186 23.4119C75.9557 24.34 75.8379 24.8805 75.668 25.2931C75.1138 26.639 74.0508 27.7083 72.7128 28.2657C72.3026 28.4366 71.7652 28.5551 70.8426 28.6184C69.9035 28.6828 68.7039 28.6838 66.9828 28.6838H16.0179ZM16.0179 32.3456C14.2968 32.3456 13.0971 32.3466 12.1581 32.411C11.2354 32.4743 10.6981 32.5928 10.2879 32.7637C8.94988 33.3212 7.88686 34.3904 7.33265 35.7363C7.16272 36.1489 7.045 36.6894 6.98205 37.6175C6.91798 38.5621 6.91699 39.7688 6.91699 41.5C6.91699 43.2312 6.91798 44.4379 6.98205 45.3825C7.045 46.3106 7.16272 46.8511 7.33265 47.2637C7.88686 48.6096 8.94988 49.6788 10.2879 50.2363C10.6981 50.4072 11.2354 50.5257 12.1581 50.589C13.0971 50.6534 14.2968 50.6544 16.0179 50.6544H66.9828C68.7039 50.6544 69.9035 50.6534 70.8426 50.589C71.7652 50.5257 72.3026 50.4072 72.7128 50.2363C74.0508 49.6788 75.1138 48.6096 75.668 47.2637C75.8379 46.8511 75.9557 46.3106 76.0186 45.3825C76.0827 44.4379 76.0837 43.2312 76.0837 41.5C76.0837 39.7688 76.0827 38.5621 76.0186 37.6175C75.9557 36.6894 75.8379 36.1489 75.668 35.7363C75.1138 34.3904 74.0508 33.3212 72.7128 32.7637C72.3026 32.5928 71.7652 32.4743 70.8426 32.411C69.9035 32.3466 68.7039 32.3456 66.9828 32.3456H16.0179ZM19.6582 41.5C19.6582 43.5223 18.0284 45.1618 16.0179 45.1618C14.0074 45.1618 12.3775 43.5223 12.3775 41.5C12.3775 39.4777 14.0074 37.8382 16.0179 37.8382C18.0284 37.8382 19.6582 39.4777 19.6582 41.5ZM16.0179 23.1912C18.0284 23.1912 19.6582 21.5517 19.6582 19.5294C19.6582 17.5071 18.0284 15.8676 16.0179 15.8676C14.0074 15.8676 12.3775 17.5071 12.3775 19.5294C12.3775 21.5517 14.0074 23.1912 16.0179 23.1912Z" fill="white" fill-opacity="0.8"/>
</g>
</svg>
