<svg width="82" height="82" viewBox="0 0 82 82" fill="none" xmlns="http://www.w3.org/2000/svg">
<path opacity="0.6" d="M67.3643 69.5717C72.2384 66.914 75.1663 63.5067 75.1663 59.7917C75.1663 55.8539 71.8766 52.2619 66.4664 49.5417C60.2103 46.3963 51.1187 44.4167 40.9997 44.4167C30.8806 44.4167 21.7891 46.3963 15.5329 49.5417C10.1227 52.2619 6.83301 55.8539 6.83301 59.7917C6.83301 63.7296 10.1227 67.3216 15.5329 70.0417C21.7891 73.1872 30.8806 75.1667 40.9997 75.1667C51.6139 75.1667 61.0977 72.9887 67.3643 69.5717Z" fill="white"/>
<path fill-rule="evenodd" clip-rule="evenodd" d="M31.6045 13.6666C31.6045 8.47741 35.8111 4.27075 41.0003 4.27075C46.1895 4.27075 50.3962 8.47741 50.3962 13.6666C50.3962 18.8558 46.1895 23.0624 41.0003 23.0624C35.8111 23.0624 31.6045 18.8558 31.6045 13.6666Z" fill="white"/>
<path d="M28.0952 39.5457L20.663 37.0683C18.5251 36.3557 17.083 34.3549 17.083 32.1014C17.083 28.7682 20.1564 26.2836 23.4156 26.982L29.899 28.3713C30.2595 28.4485 30.4398 28.4872 30.6185 28.5241C37.4668 29.9407 44.5325 29.9407 51.3808 28.5241C51.5596 28.4872 51.7398 28.4485 52.1004 28.3713L58.5837 26.982C61.8429 26.2836 64.9163 28.7682 64.9163 32.1014C64.9163 34.3549 63.4743 36.3557 61.3364 37.0683L53.9041 39.5457C53.0059 39.8451 52.5569 39.9948 52.2191 40.2033C51.069 40.9132 50.4455 42.2344 50.6286 43.5735C50.6824 43.9668 50.8523 44.4086 51.1922 45.2922L55.4521 56.3679C56.7201 59.6648 54.2865 63.2083 50.7541 63.2083C48.9478 63.2083 47.2799 62.2405 46.3838 60.6721L40.9997 51.25L35.6156 60.6721C34.7194 62.2405 33.0516 63.2083 31.2453 63.2083C27.7129 63.2083 25.2792 59.6648 26.5473 56.3679L30.8071 45.2922C31.147 44.4086 31.3169 43.9668 31.3707 43.5735C31.5538 42.2344 30.9303 40.9132 29.7802 40.2033C29.4425 39.9948 28.9934 39.8451 28.0952 39.5457Z" fill="white"/>
</svg>
