<svg width="86" height="86" viewBox="0 0 86 86" fill="none" xmlns="http://www.w3.org/2000/svg">
<path opacity="0.5" d="M38.868 78.5977C21.0242 76.5488 7.16699 61.3927 7.16699 43.0001C7.16699 23.2099 23.2101 7.16675 43.0003 7.16675C62.7905 7.16675 78.8337 23.2099 78.8337 43.0001C78.8337 61.4777 67.0706 59.9581 57.0238 58.6603C51.2291 57.9117 46.0053 57.2369 43.9387 60.5152C42.5254 62.7573 44.0532 65.5529 45.9273 67.427C48.2688 69.7686 48.2688 73.5649 45.9273 75.9065C44.0532 77.7806 41.501 78.9001 38.868 78.5977Z" fill="white" fill-opacity="0.8"/>
<path d="M39.7216 25.0833C39.7216 28.0518 37.3151 30.4583 34.3466 30.4583C31.3781 30.4583 28.9716 28.0518 28.9716 25.0833C28.9716 22.1147 31.3781 19.7083 34.3466 19.7083C37.3151 19.7083 39.7216 22.1147 39.7216 25.0833Z" fill="white" fill-opacity="0.8"/>
<path d="M23.292 46.5841C26.2605 46.5841 28.667 44.1776 28.667 41.2091C28.667 38.2405 26.2605 35.8341 23.292 35.8341C20.3235 35.8341 17.917 38.2405 17.917 41.2091C17.917 44.1776 20.3235 46.5841 23.292 46.5841Z" fill="white" fill-opacity="0.8"/>
<path d="M62.7087 46.5841C65.6772 46.5841 68.0837 44.1776 68.0837 41.2091C68.0837 38.2405 65.6772 35.8341 62.7087 35.8341C59.7401 35.8341 57.3337 38.2405 57.3337 41.2091C57.3337 44.1776 59.7401 46.5841 62.7087 46.5841Z" fill="white" fill-opacity="0.8"/>
<path d="M51.9587 30.4591C54.9272 30.4591 57.3337 28.0526 57.3337 25.0841C57.3337 22.1155 54.9272 19.7091 51.9587 19.7091C48.9901 19.7091 46.5837 22.1155 46.5837 25.0841C46.5837 28.0526 48.9901 30.4591 51.9587 30.4591Z" fill="white" fill-opacity="0.8"/>
</svg>
