<svg width="81" height="81" viewBox="0 0 81 81" fill="none" xmlns="http://www.w3.org/2000/svg">
<path opacity="0.5" d="M6.75 40.5C6.75 24.5901 6.75 16.6351 11.6926 11.6926C16.6351 6.75 24.5901 6.75 40.5 6.75C56.4099 6.75 64.3649 6.75 69.3074 11.6926C74.25 16.6351 74.25 24.5901 74.25 40.5C74.25 56.4099 74.25 64.3649 69.3074 69.3074C64.3649 74.25 56.4099 74.25 40.5 74.25C24.5901 74.25 16.6351 74.25 11.6926 69.3074C6.75 64.3649 6.75 56.4099 6.75 40.5Z" fill="white" fill-opacity="0.8"/>
<path d="M11.6927 69.3074C16.6354 74.25 24.5906 74.25 40.501 74.25C56.4113 74.25 64.3665 74.25 69.3092 69.3074C73.8894 64.7274 74.2253 57.5609 74.25 43.875H63.5858C60.5307 43.875 59.0032 43.875 57.6605 44.4925C56.3178 45.1101 55.3237 46.2698 53.3356 48.5892L53.3355 48.5893L51.2921 50.9732C49.3039 53.2927 48.3098 54.4524 46.9671 55.07C45.6244 55.6875 44.0969 55.6875 41.0419 55.6875H39.9601C36.905 55.6875 35.3775 55.6875 34.0348 55.07C32.6921 54.4524 31.698 53.2927 29.7098 50.9732L27.6664 48.5893C25.6783 46.2698 24.6842 45.1101 23.3415 44.4925C21.9987 43.875 20.4712 43.875 17.4162 43.875H6.75C6.77465 57.5609 7.1126 64.7274 11.6927 69.3074Z" fill="white" fill-opacity="0.8"/>
<path d="M27 21.0938C25.602 21.0938 24.4688 22.227 24.4688 23.625C24.4688 25.023 25.602 26.1562 27 26.1562H54C55.398 26.1562 56.5312 25.023 56.5312 23.625C56.5312 22.227 55.398 21.0938 54 21.0938H27Z" fill="white" fill-opacity="0.8"/>
<path d="M33.75 32.9062C32.352 32.9062 31.2188 34.0395 31.2188 35.4375C31.2188 36.8355 32.352 37.9688 33.75 37.9688H47.25C48.648 37.9688 49.7812 36.8355 49.7812 35.4375C49.7812 34.0395 48.648 32.9062 47.25 32.9062H33.75Z" fill="white" fill-opacity="0.8"/>
</svg>
