<svg width="72" height="72" viewBox="0 0 72 72" fill="none" xmlns="http://www.w3.org/2000/svg">
<path opacity="0.5" d="M3 36C3 20.4436 3 12.6655 7.83274 7.83274C12.6655 3 20.4436 3 36 3C51.5563 3 59.3345 3 64.1673 7.83274C69 12.6655 69 20.4436 69 36C69 51.5563 69 59.3345 64.1673 64.1673C59.3345 69 51.5563 69 36 69C20.4436 69 12.6655 69 7.83274 64.1673C3 59.3345 3 51.5563 3 36Z" fill="white" fill-opacity="0.8"/>
<path d="M44.5149 40.3324L44.515 40.3323L61.1361 23.7112C61.5379 23.3094 61.354 22.6173 60.8171 22.431C58.8552 21.7503 56.3031 20.4724 53.9157 18.0851C51.5284 15.6977 50.2504 13.1456 49.5698 11.1836C49.3835 10.6468 48.6914 10.4628 48.2895 10.8647L31.6685 27.4858C30.3352 28.819 29.6686 29.4856 29.0953 30.2207C28.419 31.0877 27.8392 32.0259 27.3661 33.0185C26.9651 33.86 26.667 34.7544 26.0707 36.5431L25.3003 38.8544L24.0752 42.5296L22.9266 45.9756C22.6331 46.8559 22.8622 47.8263 23.5183 48.4824C24.1744 49.1385 25.1449 49.3676 26.0252 49.0742L29.4712 47.9255L33.1464 46.7005L35.4577 45.93L35.4577 45.93C37.2464 45.3338 38.1408 45.0357 38.9823 44.6346C39.9749 44.1616 40.9131 43.5818 41.7801 42.9055C42.5151 42.3322 43.1817 41.6656 44.5149 40.3324Z" fill="white" fill-opacity="0.8"/>
<path d="M66.3402 18.5072C69.8876 14.9597 69.8876 9.20808 66.3402 5.66061C62.7927 2.11313 57.0411 2.11313 53.4936 5.66061L52.8258 6.3284C52.4972 6.657 52.3329 6.82131 52.2594 7.05508C52.1859 7.28886 52.2258 7.51356 52.3057 7.96296L52.3388 8.1486C52.4199 8.60011 52.5701 9.26023 52.8434 10.0479C53.3899 11.6232 54.4219 13.691 56.3658 15.6349C58.3097 17.5788 60.3776 18.6109 61.9529 19.1574C62.7406 19.4307 63.4007 19.5809 63.8522 19.662L64.0378 19.6951C64.4872 19.775 64.7119 19.8149 64.9457 19.7414C65.1795 19.6679 65.3438 19.5036 65.6724 19.175L66.3402 18.5072Z" fill="white" fill-opacity="0.8"/>
</svg>
