<svg width="84" height="84" viewBox="0 0 84 84" fill="none" xmlns="http://www.w3.org/2000/svg">
<path opacity="0.5" d="M7 42C7 25.5008 7 17.2513 12.1256 12.1256C17.2513 7 25.5008 7 42 7C58.4992 7 66.7487 7 71.8744 12.1256C77 17.2513 77 25.5008 77 42C77 58.4992 77 66.7487 71.8744 71.8744C66.7487 77 58.4992 77 42 77C25.5008 77 17.2513 77 12.1256 71.8744C7 66.7487 7 58.4992 7 42Z" fill="white"/>
<path d="M12.1258 71.8744C17.2516 77 25.5014 77 42.001 77C58.5006 77 66.7505 77 71.8762 71.8744C76.626 67.1248 76.9744 59.6927 77 45.5H65.9408C62.7726 45.5 61.1885 45.5 59.7961 46.1404C58.4036 46.7808 57.3727 47.9835 55.3109 50.3889L53.1918 52.8611C51.13 55.2665 50.0991 56.4692 48.7067 57.1096C47.3142 57.75 45.7301 57.75 42.5619 57.75H41.4401C38.2719 57.75 36.6878 57.75 35.2954 57.1096C33.9029 56.4692 32.872 55.2665 30.8102 52.8611L28.6911 50.3889C26.6293 47.9835 25.5984 46.7808 24.206 46.1404C22.8135 45.5 21.2294 45.5 18.0612 45.5H7C7.02556 59.6927 7.37603 67.1248 12.1258 71.8744Z" fill="white"/>
<path d="M43.8568 20.8938C43.3646 20.4016 42.6969 20.125 42.0007 20.125C41.3045 20.125 40.6368 20.4016 40.1445 20.8938L28.5945 32.4438C27.5694 33.469 27.5694 35.131 28.5945 36.1562C29.6197 37.1813 31.2817 37.1813 32.3068 36.1562L39.3757 29.0873L39.3757 57.7406C37.507 57.7115 36.3465 57.5931 35.2954 57.1096C33.9029 56.4692 32.872 55.2665 30.8102 52.8611L28.6911 50.3889C26.6293 47.9835 25.5984 46.7808 24.2059 46.1404C22.8135 45.5 21.2294 45.5 18.0612 45.5H7C7.02556 59.6927 7.37603 67.1248 12.1258 71.8744C17.2516 77 25.5014 77 42.001 77C58.5006 77 66.7505 77 71.8762 71.8744C76.626 67.1248 76.9744 59.6927 77 45.5H65.9408C62.7726 45.5 61.1885 45.5 59.7961 46.1404C58.4036 46.7808 57.3727 47.9835 55.3109 50.3889L53.1918 52.8611C51.13 55.2665 50.0991 56.4692 48.7067 57.1096C47.6553 57.5931 46.4948 57.7116 44.6257 57.7406V29.0873L51.6945 36.1562C52.7197 37.1813 54.3817 37.1813 55.4068 36.1562C56.432 35.131 56.432 33.469 55.4068 32.4438L43.8568 20.8938Z" fill="white"/>
</svg>
