<svg width="79" height="79" viewBox="0 0 79 79" fill="none" xmlns="http://www.w3.org/2000/svg">
<path opacity="0.5" d="M39.4997 6.58337C23.9826 6.58337 16.2241 6.58337 11.4035 11.4039C6.58301 16.2244 6.58301 23.983 6.58301 39.5C6.58301 55.0171 6.58301 62.7756 11.4035 67.5962C16.2241 72.4167 23.9826 72.4167 39.4997 72.4167C55.0167 72.4167 62.7753 72.4167 67.5958 67.5962C72.4163 62.7756 72.4163 55.0171 72.4163 39.5C72.4163 23.983 72.4163 16.2244 67.5958 11.4039C62.7753 6.58337 55.0167 6.58337 39.4997 6.58337Z" fill="white"/>
<path d="M39.4997 20.5729C40.8631 20.5729 41.9684 21.6782 41.9684 23.0416V42.7916C41.9684 44.1551 40.8631 45.2604 39.4997 45.2604C38.1362 45.2604 37.0309 44.1551 37.0309 42.7916V23.0416C37.0309 21.6782 38.1362 20.5729 39.4997 20.5729Z" fill="white"/>
<path d="M39.4997 55.9583C41.3176 55.9583 42.7913 54.4846 42.7913 52.6666C42.7913 50.8487 41.3176 49.375 39.4997 49.375C37.6817 49.375 36.208 50.8487 36.208 52.6666C36.208 54.4846 37.6817 55.9583 39.4997 55.9583Z" fill="white"/>
</svg>
