<svg width="76" height="76" viewBox="0 0 76 76" fill="none" xmlns="http://www.w3.org/2000/svg">
<path fill-rule="evenodd" clip-rule="evenodd" d="M32.9451 71.1889L33.8162 69.7173C35.2121 67.3589 35.9101 66.1796 37.0219 65.5219C38.1338 64.8642 39.5841 64.8178 42.4847 64.7251C45.2045 64.6381 47.0325 64.4008 48.5955 63.7533C51.8861 62.3903 54.5006 59.7759 55.8636 56.4852C56.8859 54.0172 56.8859 50.8885 56.8859 44.631V41.945C56.8859 33.1527 56.8859 28.7566 54.9069 25.5271C53.7995 23.7201 52.2802 22.2008 50.4732 21.0934C47.2437 19.1144 42.8476 19.1144 34.0553 19.1144H25.9975C17.2053 19.1144 12.8091 19.1144 9.5797 21.0934C7.77266 22.2008 6.25335 23.7201 5.14599 25.5271C3.16699 28.7566 3.16699 33.1527 3.16699 41.945V44.631C3.16699 50.8885 3.16699 54.0172 4.18927 56.4852C5.5523 59.7759 8.16672 62.3903 11.4574 63.7533C13.0203 64.4007 14.8483 64.6381 17.568 64.7251C20.4686 64.8178 21.9189 64.8642 23.0308 65.5219C24.1427 66.1796 24.8407 67.3589 26.2366 69.7173L27.1076 71.1889C28.4054 73.3814 31.6474 73.3814 32.9451 71.1889ZM41.7774 45.9738C43.6317 45.9738 45.1349 44.4707 45.1349 42.6164C45.1349 40.7621 43.6317 39.259 41.7774 39.259C39.9232 39.259 38.42 40.7621 38.42 42.6164C38.42 44.4707 39.9232 45.9738 41.7774 45.9738ZM33.3839 42.6164C33.3839 44.4707 31.8807 45.9738 30.0264 45.9738C28.1722 45.9738 26.669 44.4707 26.669 42.6164C26.669 40.7621 28.1722 39.259 30.0264 39.259C31.8807 39.259 33.3839 40.7621 33.3839 42.6164ZM18.2754 45.9738C20.1297 45.9738 21.6329 44.4707 21.6329 42.6164C21.6329 40.7621 20.1297 39.259 18.2754 39.259C16.4212 39.259 14.918 40.7621 14.918 42.6164C14.918 44.4707 16.4212 45.9738 18.2754 45.9738Z" fill="white"/>
<path opacity="0.5" d="M49.0387 3.16663C53.0505 3.1666 56.2407 3.16658 58.7993 3.40985C61.4227 3.65929 63.6408 4.18215 65.6168 5.39302C67.6497 6.6388 69.3589 8.34803 70.6047 10.381C71.8155 12.3569 72.3384 14.575 72.5878 17.1985C72.8311 19.757 72.8311 22.9475 72.831 26.9591V29.6992C72.8311 32.5542 72.8311 34.8253 72.7054 36.6668C72.5769 38.5508 72.3085 40.1686 71.681 41.6835C70.1476 45.3855 67.2064 48.3267 63.5044 49.8601C63.4118 49.8985 63.3188 49.9355 63.2252 49.9713C62.7785 50.142 62.3954 50.2885 62.0594 50.3975H56.834C56.8852 48.8172 56.8852 46.9352 56.8852 44.6279V41.9419C56.8852 33.1496 56.8852 28.7535 54.9062 25.524C53.7989 23.717 52.2796 22.1977 50.4725 21.0903C47.2431 19.1113 42.8469 19.1113 34.0547 19.1113H25.9969C22.8764 19.1113 20.3097 19.1113 18.1523 19.1998V13.9735C18.2559 13.6145 18.3978 13.2031 18.5644 12.7201C18.8477 11.8987 19.2058 11.1219 19.6598 10.381C20.9056 8.34803 22.6148 6.6388 24.6478 5.39302C26.6237 4.18215 28.8418 3.65929 31.4653 3.40985C34.0238 3.16658 37.2141 3.1666 41.2259 3.16663H49.0387Z" fill="white"/>
</svg>
