<svg width="86" height="86" viewBox="0 0 86 86" fill="none" xmlns="http://www.w3.org/2000/svg">
<path d="M55.5413 26.875C55.5413 33.8016 49.9262 39.4166 42.9997 39.4166C36.0731 39.4166 30.458 33.8016 30.458 26.875C30.458 19.9484 36.0731 14.3333 42.9997 14.3333C49.9262 14.3333 55.5413 19.9484 55.5413 26.875Z" fill="white"/>
<path opacity="0.4" d="M69.8747 26.875C69.8747 31.8226 65.8639 35.8334 60.9163 35.8334C55.9688 35.8334 51.958 31.8226 51.958 26.875C51.958 21.9275 55.9688 17.9167 60.9163 17.9167C65.8639 17.9167 69.8747 21.9275 69.8747 26.875Z" fill="white"/>
<path opacity="0.4" d="M16.1253 26.875C16.1253 31.8226 20.1361 35.8334 25.0837 35.8334C30.0312 35.8334 34.042 31.8226 34.042 26.875C34.042 21.9275 30.0312 17.9167 25.0837 17.9167C20.1361 17.9167 16.1253 21.9275 16.1253 26.875Z" fill="white"/>
<path d="M64.5 59.125C64.5 66.0515 54.8741 71.6666 43 71.6666C31.1259 71.6666 21.5 66.0515 21.5 59.125C21.5 52.1984 31.1259 46.5833 43 46.5833C54.8741 46.5833 64.5 52.1984 64.5 59.125Z" fill="white"/>
<path opacity="0.4" d="M78.8337 59.125C78.8337 64.0726 72.4164 68.0834 64.5003 68.0834C56.5842 68.0834 50.167 64.0726 50.167 59.125C50.167 54.1775 56.5842 50.1667 64.5003 50.1667C72.4164 50.1667 78.8337 54.1775 78.8337 59.125Z" fill="white"/>
<path opacity="0.4" d="M7.16634 59.125C7.16634 64.0726 13.5836 68.0834 21.4997 68.0834C29.4158 68.0834 35.833 64.0726 35.833 59.125C35.833 54.1775 29.4158 50.1667 21.4997 50.1667C13.5836 50.1667 7.16634 54.1775 7.16634 59.125Z" fill="white"/>
</svg>
