<svg width="85" height="85" viewBox="0 0 85 85" fill="none" xmlns="http://www.w3.org/2000/svg">
<path fill-rule="evenodd" clip-rule="evenodd" d="M7.18164 39.8438C8.53996 21.5243 23.8336 7.08334 42.5002 7.08334C39.5576 7.08334 36.9376 8.37325 34.7822 10.3457C32.6376 12.3082 30.8254 15.0478 29.3596 18.2862C27.8851 21.5437 26.7398 25.3537 25.9646 29.4883C25.3432 32.8027 24.965 36.2968 24.839 39.8438H7.18164ZM7.18164 45.1563H24.839C24.965 48.7032 25.3432 52.1973 25.9646 55.5117C26.7398 59.6463 27.8851 63.4563 29.3596 66.7138C30.8254 69.9523 32.6376 72.6918 34.7822 74.6544C36.9376 76.6268 39.5576 77.9167 42.5002 77.9167C23.8336 77.9167 8.53996 63.4757 7.18164 45.1563Z" fill="white"/>
<path d="M42.5002 7.08334C45.4428 7.08334 48.0628 8.37325 50.2182 10.3457C52.3628 12.3082 54.175 15.0478 55.6408 18.2862C57.1153 21.5437 58.2606 25.3537 59.0358 29.4883C59.6572 32.8027 60.0354 36.2968 60.1614 39.8438H77.8187C76.4604 21.5243 61.1668 7.08334 42.5002 7.08334Z" fill="white"/>
<path d="M59.0358 55.5117C58.2606 59.6463 57.1153 63.4563 55.6408 66.7138C54.175 69.9523 52.3628 72.6918 50.2182 74.6544C48.0628 76.6268 45.4428 77.9167 42.5002 77.9167C61.1668 77.9167 76.4604 63.4757 77.8187 45.1563H60.1614C60.0354 48.7032 59.6572 52.1973 59.0358 55.5117Z" fill="white"/>
<g opacity="0.5">
<path d="M42.5007 12.0258C41.5268 12.0258 40.2685 12.4402 38.8054 13.7791C37.3314 15.1279 35.8559 17.2419 34.5522 20.1221C33.2572 22.9832 32.2057 26.437 31.482 30.2967C30.9122 33.3362 30.5586 36.5583 30.4346 39.8443H54.5669C54.4429 36.5583 54.0893 33.3362 53.5194 30.2967C52.7958 26.437 51.7443 22.9832 50.4493 20.1221C49.1456 17.2419 47.67 15.1279 46.1961 13.7791C44.733 12.4402 43.4747 12.0258 42.5007 12.0258Z" fill="white"/>
<path d="M31.482 54.7045C32.2057 58.5641 33.2572 62.018 34.5522 64.879C35.8559 67.7592 37.3314 69.8732 38.8054 71.222C40.2685 72.5609 41.5268 72.9754 42.5007 72.9754C43.4747 72.9754 44.733 72.5609 46.1961 71.222C47.67 69.8732 49.1456 67.7592 50.4492 64.879C51.7443 62.018 52.7958 58.5641 53.5194 54.7045C54.0893 51.6649 54.4429 48.4428 54.5669 45.1568H30.4346C30.5586 48.4428 30.9122 51.6649 31.482 54.7045Z" fill="white"/>
</g>
</svg>
