<svg width="85" height="85" viewBox="0 0 85 85" fill="none" xmlns="http://www.w3.org/2000/svg">
<path d="M39.4749 10.7047C40.8207 8.29045 41.4936 7.08331 42.4997 7.08331C43.5057 7.08331 44.1786 8.29045 45.5244 10.7047L45.8726 11.3293C46.2551 12.0154 46.4463 12.3584 46.7444 12.5847C47.0426 12.8111 47.4139 12.8951 48.1565 13.0631L48.8327 13.2161C51.4461 13.8074 52.7528 14.1031 53.0637 15.1028C53.3745 16.1025 52.4837 17.1442 50.7021 19.2276L50.2411 19.7666C49.7348 20.3587 49.4817 20.6547 49.3678 21.0209C49.2539 21.3871 49.2922 21.7821 49.3688 22.572L49.4384 23.2911C49.7078 26.0708 49.8425 27.4607 49.0286 28.0785C48.2147 28.6964 46.9912 28.1331 44.5443 27.0064L43.9112 26.715C43.2159 26.3948 42.8682 26.2347 42.4997 26.2347C42.1311 26.2347 41.7835 26.3948 41.0881 26.715L40.4551 27.0064C38.0081 28.1331 36.7847 28.6964 35.9708 28.0785C35.1569 27.4607 35.2915 26.0708 35.5609 23.2911L35.6306 22.572C35.7071 21.7821 35.7454 21.3871 35.6315 21.0209C35.5176 20.6547 35.2645 20.3587 34.7582 19.7666L34.2973 19.2276C32.5156 17.1442 31.6248 16.1025 31.9357 15.1028C32.2466 14.1031 33.5533 13.8074 36.1667 13.2161L36.8428 13.0631C37.5855 12.8951 37.9568 12.8111 38.2549 12.5847C38.5531 12.3584 38.7443 12.0154 39.1267 11.3293L39.4749 10.7047Z" fill="white"/>
<path d="M46.0413 35.4166H38.958C33.9493 35.4166 31.445 35.4166 29.889 36.9726C28.333 38.5286 28.333 41.033 28.333 46.0416V77.9166H56.6663V67.2916V46.0416C56.6663 41.033 56.6663 38.5286 55.1103 36.9726C53.5544 35.4166 51.05 35.4166 46.0413 35.4166Z" fill="white"/>
<g opacity="0.5">
<path d="M26.777 68.8477C25.221 67.2917 22.7167 67.2917 17.708 67.2917C12.6993 67.2917 10.195 67.2917 8.639 68.8477C7.08301 70.4037 7.08301 72.908 7.08301 77.9167H28.333C28.333 72.908 28.333 70.4037 26.777 68.8477Z" fill="white"/>
<path d="M56.6663 67.2917V77.9167H77.9163V67.2917C77.9163 62.283 77.9163 59.7787 76.3603 58.2227C74.8044 56.6667 72.3 56.6667 67.2913 56.6667C62.2827 56.6667 59.7783 56.6667 58.2223 58.2227C56.6663 59.7787 56.6663 62.283 56.6663 67.2917Z" fill="white"/>
</g>
</svg>
