<svg width="85" height="85" viewBox="0 0 85 85" fill="none" xmlns="http://www.w3.org/2000/svg">
<path fill-rule="evenodd" clip-rule="evenodd" d="M42.4997 7.08333C59.1953 7.08333 67.543 7.08333 72.7297 12.27C74.5142 14.0545 75.6848 16.2133 76.4526 18.9575L18.9572 76.4529C16.2129 75.6851 14.0542 74.5145 12.2697 72.73C7.08301 67.5434 7.08301 59.1956 7.08301 42.5C7.08301 25.8044 7.08301 17.4566 12.2697 12.27C17.4563 7.08333 25.8041 7.08333 42.4997 7.08333ZM19.4788 31.0155C19.4788 37.3369 23.4352 44.7134 29.6079 47.3513C31.0469 47.9662 32.7025 47.9662 34.1415 47.3513C40.3142 44.7134 44.2705 37.3369 44.2705 31.0155C44.2705 24.6442 38.7207 19.4792 31.8747 19.4792C25.0286 19.4792 19.4788 24.6442 19.4788 31.0155Z" fill="white" fill-opacity="0.8"/>
<path d="M37.1872 31.875C37.1872 34.809 34.8087 37.1875 31.8747 37.1875C28.9407 37.1875 26.5622 34.809 26.5622 31.875C26.5622 28.941 28.9407 26.5625 31.8747 26.5625C34.8087 26.5625 37.1872 28.941 37.1872 31.875Z" fill="white" fill-opacity="0.8"/>
<g opacity="0.5">
<path d="M77.5247 25.4004C77.9174 29.8682 77.9174 35.4374 77.9174 42.5008C77.9174 57.1408 77.9174 65.3621 74.4203 70.6616L53.3421 49.5835L77.5247 25.4004Z" fill="white" fill-opacity="0.8"/>
<path d="M70.6642 74.4186L49.5856 53.34L25.4004 77.5247C29.8682 77.9175 35.4374 77.9175 42.5007 77.9175C57.1432 77.9175 65.3648 77.9175 70.6642 74.4186Z" fill="white" fill-opacity="0.8"/>
</g>
</svg>
