<svg width="85" height="85" viewBox="0 0 85 85" fill="none" xmlns="http://www.w3.org/2000/svg">
<path d="M29.8286 73.0226C36.0465 76.2856 39.1554 77.9171 42.4997 77.9171V42.5004L9.34265 25.0493C9.29384 25.1278 9.24589 25.207 9.19879 25.287C7.08301 28.88 7.08301 33.3511 7.08301 42.2933V42.7076C7.08301 51.6497 7.08301 56.1208 9.19879 59.7138C11.3146 63.3069 15.1248 65.3064 22.7453 69.3054L29.8286 73.0226Z" fill="white"/>
<path opacity="0.7" d="M62.2532 15.695L55.1699 11.9778C48.952 8.71482 45.8431 7.08333 42.4988 7.08333C39.1545 7.08333 36.0456 8.71482 29.8278 11.9778L22.7444 15.695C15.2936 19.605 11.4853 21.6035 9.3418 25.0489L42.4988 42.5L75.6559 25.0489C73.5124 21.6035 69.704 19.605 62.2532 15.695Z" fill="white"/>
<path opacity="0.5" d="M75.8009 25.287C75.7538 25.207 75.7058 25.1278 75.657 25.0493L42.5 42.5004V77.9171C45.8443 77.9171 48.9532 76.2856 55.1711 73.0226L62.2544 69.3054C69.8749 65.3064 73.6851 63.3069 75.8009 59.7138C77.9167 56.1208 77.9167 51.6497 77.9167 42.7076V42.2933C77.9167 33.3511 77.9167 28.88 75.8009 25.287Z" fill="white"/>
<path d="M22.3951 15.8802C22.5114 15.8191 22.6285 15.7576 22.7467 15.6957L28.0362 12.9198L60.2682 30.6474L74.5188 23.522C75.0064 24.0743 75.4303 24.6562 75.8019 25.2873C76.3317 26.1869 76.7288 27.1416 77.0265 28.2078L62.8656 35.2882V46.0424C62.8656 47.5094 61.6764 48.6986 60.2094 48.6986C58.7424 48.6986 57.5531 47.5094 57.5531 46.0424V37.9444L45.1573 44.1424V77.5774C44.2474 77.8041 43.3824 77.9174 42.501 77.9174C41.6197 77.9174 40.7547 77.804 39.8448 77.5774V44.1424L7.97559 28.2078C8.27327 27.1416 8.67039 26.1869 9.20015 25.2873C9.57176 24.6562 9.99565 24.0743 10.4833 23.522L42.501 39.5309L54.4939 33.5345L22.3951 15.8802Z" fill="white"/>
</svg>
