<svg width="86" height="86" viewBox="0 0 86 86" fill="none" xmlns="http://www.w3.org/2000/svg">
<path opacity="0.5" d="M71.6663 35.1219V49.6924C71.6663 63.4295 71.6663 70.2981 67.4682 74.5657C63.2701 78.8333 56.5133 78.8333 42.9997 78.8333C29.4861 78.8333 22.7293 78.8333 18.5311 74.5657C14.333 70.2981 14.333 63.4295 14.333 49.6924V35.1219C14.333 21.3847 14.333 14.5161 18.5311 10.2485C19.8778 8.87954 21.4878 7.94971 23.4996 7.31815C24.7656 6.92074 26.1063 7.48676 26.8747 8.57366C27.0674 8.8675 27.2503 9.14706 27.4244 9.41333L27.4257 9.41523C29.6994 12.891 30.4916 14.102 32.3291 15.2627C32.7225 15.5112 33.1313 15.7336 33.553 15.9285C35.6735 16.9088 38.1155 16.9088 42.9997 16.9088C47.8838 16.9088 50.3259 16.9088 52.4464 15.9285C52.868 15.7336 53.2769 15.5112 53.6703 15.2627C55.5078 14.102 56.3 12.891 58.5736 9.41528L58.575 9.41316C58.7492 9.14694 58.932 8.86744 59.1247 8.57366C59.8386 7.48327 61.1454 6.90307 62.3875 7.28335C64.4518 7.9154 66.0966 8.85417 67.4682 10.2485C71.6663 14.5161 71.6663 21.3847 71.6663 35.1219Z" fill="white"/>
<path d="M29.5625 68.0246C29.5625 66.5322 30.7657 65.3223 32.25 65.3223H53.75C55.2343 65.3223 56.4375 66.5322 56.4375 68.0246C56.4375 69.5171 55.2343 70.7269 53.75 70.7269H32.25C30.7657 70.7269 29.5625 69.5171 29.5625 68.0246Z" fill="white"/>
</svg>
